<?xml version="1.0" encoding="UTF-8" standalone="no"?><!DOCTYPE svg PUBLIC "-//W3C//DTD SVG 1.1//EN" "http://www.w3.org/Graphics/SVG/1.1/DTD/svg11.dtd"><svg width="100%" height="100%" viewBox="0 0 2134 2134" version="1.1" xmlns="http://www.w3.org/2000/svg" xmlns:xlink="http://www.w3.org/1999/xlink" xml:space="preserve" xmlns:serif="http://www.serif.com/" style="fill-rule:evenodd;clip-rule:evenodd;stroke-linejoin:round;stroke-miterlimit:2;"><path d="M2133.333,625l0,883.333c0,344.947 -280.053,625 -625,625l-883.333,0c-344.947,0 -625,-280.053 -625,-625l0,-883.333c0,-344.947 280.053,-625 625,-625l883.333,0c344.947,0 625,280.053 625,625Z" style="fill:#37aee2;"/><path d="M829.167,1683.333c-45.833,0 -41.667,-16.667 -54.167,-58.333l-133.333,-437.5l1020.833,-600" style="fill:#c8daea;fill-rule:nonzero;"/><path d="M829.167,1683.333c29.167,0 45.833,-16.667 66.667,-33.333l187.5,-179.167l-233.333,-141.667" style="fill:#a9c9dd;fill-rule:nonzero;"/><path d="M850,1329.167l562.5,412.5c58.333,37.5 108.333,16.667 125,-58.333l229.167,-1075c20.833,-91.667 -37.5,-133.333 -100,-104.167l-1337.5,516.667c-87.5,33.333 -87.5,87.5 -16.667,108.333l345.833,108.333l791.667,-504.167c37.5,-20.833 70.833,-12.5 45.833,16.667" style="fill:#f6fbfe;fill-rule:nonzero;"/></svg>