<?xml version="1.0" encoding="UTF-8" standalone="no"?><!DOCTYPE svg PUBLIC "-//W3C//DTD SVG 1.1//EN" "http://www.w3.org/Graphics/SVG/1.1/DTD/svg11.dtd"><svg width="100%" height="100%" viewBox="0 0 1067 1067" version="1.1" xmlns="http://www.w3.org/2000/svg" xmlns:xlink="http://www.w3.org/1999/xlink" xml:space="preserve" xmlns:serif="http://www.serif.com/" style="fill-rule:evenodd;clip-rule:evenodd;stroke-linejoin:round;stroke-miterlimit:2;"><g id="Слой_2"><g><path d="M1066.667,213.333l0,640c0,117.742 -95.591,213.333 -213.333,213.333l-640,0c-117.742,0 -213.333,-95.591 -213.333,-213.333l-0,-640c0,-117.742 95.591,-213.333 213.333,-213.333l640,0c117.742,0 213.333,95.591 213.333,213.333Z" style="fill:#009cfb;"/></g><g id="Layer"><circle cx="533.333" cy="533.333" r="533.333" style="fill:#009cfb;"/><path d="M54.345,550.179c6.228,-11.034 13.536,-24.656 21.922,-40.864l23.632,-45.352c7.356,-14.014 13.487,-26.139 18.391,-36.377c7.785,0.123 13.303,0.184 16.552,0.184c5.689,0 11.255,-0.061 16.699,-0.184l12.874,36.782l27.899,75.972l3.862,9.876l-13.444,-0.184c-3.114,0 -8.343,0.061 -15.687,0.184c-1.434,-5.333 -3.697,-12.518 -6.786,-21.554c-3.09,-9.036 -5.713,-16.392 -7.871,-22.069l-47.393,0c-7.001,14.271 -13.799,28.8 -20.395,43.586l-14.713,-0.184c-2.746,0 -7.926,0.061 -15.54,0.184Zm58.63,-62.234l34.409,0l-14.124,-41.563l-7.356,15.117l-12.929,26.446Z" style="fill:#fff;fill-rule:nonzero;"/><g opacity="0.7"><path d="M202.115,547.476l-0.993,-9.876c2.413,1.023 4.904,1.853 7.448,2.483c1.838,0.442 3.719,0.676 5.609,0.699c1.458,0.035 2.912,-0.17 4.303,-0.607c1.043,-0.321 1.958,-0.965 2.611,-1.839c0.539,-0.716 0.835,-1.586 0.846,-2.483c0.004,-0.365 -0.033,-0.729 -0.11,-1.085c-0.088,-0.36 -0.224,-0.706 -0.405,-1.03c-0.195,-0.357 -0.423,-0.696 -0.68,-1.011c-0.321,-0.388 -0.672,-0.75 -1.048,-1.085c-0.454,-0.405 -1.067,-0.92 -1.839,-1.545l-2.428,-1.839c-2.33,-1.827 -4.113,-3.261 -5.352,-4.303c-1.14,-0.962 -2.175,-2.04 -3.09,-3.218c-0.788,-1.05 -1.409,-2.217 -1.839,-3.457c-1.215,-3.332 -0.712,-7.058 1.343,-9.949c1.413,-2.04 3.454,-3.565 5.811,-4.34c2.892,-0.964 5.927,-1.425 8.975,-1.361c4.55,0.065 9.086,0.533 13.554,1.398l0.589,9.379c-3.167,-1.344 -6.565,-2.062 -10.005,-2.115c-1.536,-0.024 -3.069,0.149 -4.561,0.515c-1.079,0.211 -2.065,0.758 -2.814,1.563c-0.548,0.662 -0.848,1.495 -0.846,2.354c0.003,0.515 0.096,1.026 0.276,1.508c0.222,0.565 0.539,1.087 0.938,1.545c0.466,0.556 0.983,1.068 1.545,1.526c0.589,0.478 1.815,1.422 3.678,2.832c1.864,1.41 3.488,2.685 4.874,3.825c1.271,1.015 2.424,2.169 3.439,3.439c0.874,1.111 1.569,2.352 2.06,3.678c0.471,1.278 0.714,2.629 0.717,3.991c0,2.245 -0.722,4.431 -2.06,6.234c-1.593,2.075 -3.761,3.636 -6.234,4.487c-2.987,1.113 -6.155,1.662 -9.343,1.618c-2.188,-0.024 -4.374,-0.165 -6.547,-0.423c-2.838,-0.317 -5.652,-0.821 -8.423,-1.508Z" style="fill:#fff;fill-rule:nonzero;"/><path d="M238.032,568.938c-0.539,-4.487 -0.975,-7.718 -1.306,-9.692c2.528,1.264 5.303,1.955 8.129,2.023c0.8,-0.004 1.596,-0.103 2.372,-0.294c0.779,-0.183 1.533,-0.461 2.244,-0.828c0.499,-0.279 0.957,-0.625 1.361,-1.03c0.686,-0.764 1.302,-1.589 1.839,-2.464c0.775,-1.14 1.482,-2.325 2.115,-3.549c0.566,-1.226 1.057,-2.485 1.471,-3.77l-9.343,-27.292l-6.823,-19.366l13.021,0c0.625,2.452 1.238,4.61 1.839,6.474l4.267,14.106c1.312,4.34 2.256,7.602 2.832,9.784c0.356,1.434 0.772,3.335 1.251,5.701c0.895,-2.722 1.674,-4.935 2.336,-6.639c1.226,-3.114 2.857,-7.277 4.892,-12.487l4.359,-10.74c0.772,-1.913 1.563,-3.979 2.372,-6.198l12.634,0l-17.287,38.731l-7.503,17.103c-0.819,1.825 -1.83,3.557 -3.016,5.168c-0.735,0.999 -1.594,1.901 -2.556,2.685c-0.88,0.724 -1.843,1.341 -2.869,1.839c-1.34,0.616 -2.739,1.096 -4.175,1.434c-1.699,0.357 -3.431,0.536 -5.168,0.533c-0.993,0 -2.372,-0.092 -4.138,-0.276c-1.737,-0.196 -3.458,-0.516 -5.149,-0.956Z" style="fill:#fff;fill-rule:nonzero;"/><path d="M292.91,548.322c0.687,-6.792 1.257,-14.425 1.71,-22.897c0.454,-8.472 0.717,-16.061 0.791,-22.768l12.8,0l-0.497,7.632c0.753,-1.095 1.57,-2.145 2.446,-3.145c0.808,-0.869 1.715,-1.641 2.703,-2.299c1.082,-0.759 2.256,-1.377 3.494,-1.839c1.358,-0.482 2.754,-0.845 4.175,-1.085c1.598,-0.274 3.216,-0.41 4.837,-0.405c2.584,-0.009 5.158,0.331 7.651,1.011c2.211,0.55 4.243,1.658 5.903,3.218c1.398,1.307 2.42,2.965 2.961,4.8c0.486,1.798 0.727,3.654 0.717,5.517c0,0.809 -0.043,2.097 -0.129,3.862l-0.92,19.623c-0.123,2.722 -0.196,5.628 -0.221,8.717l-12.947,0c0.245,-2.599 0.546,-7.142 0.901,-13.628c0.356,-6.486 0.533,-10.777 0.533,-12.874c0.084,-1.962 -0.301,-3.917 -1.122,-5.701c-0.762,-1.447 -1.986,-2.599 -3.476,-3.274c-1.592,-0.753 -3.333,-1.137 -5.094,-1.122c-1.727,-0.014 -3.438,0.337 -5.021,1.03c-1.558,0.689 -2.94,1.72 -4.046,3.016c-1.255,1.455 -2.2,3.151 -2.777,4.984c-0.893,3.39 -1.405,6.869 -1.526,10.372c-0.307,4.279 -0.546,10.011 -0.717,17.195l-6.253,0c-1.864,0 -4.156,0.018 -6.878,0.055Z" style="fill:#fff;fill-rule:nonzero;"/><path d="M387.862,537.968c-0.147,1.226 -0.374,2.618 -0.68,4.175c-0.307,1.557 -0.619,3.488 -0.938,5.793c-4.148,0.968 -8.393,1.462 -12.653,1.471c-2.352,0.005 -4.699,-0.223 -7.007,-0.68c-2.213,-0.437 -4.335,-1.252 -6.271,-2.409c-1.968,-1.188 -3.696,-2.736 -5.094,-4.561c-1.54,-2.04 -2.659,-4.365 -3.292,-6.841c-0.736,-2.697 -1.107,-5.48 -1.103,-8.276c-0.006,-3.701 0.616,-7.376 1.839,-10.869c1.055,-3.227 2.879,-6.15 5.315,-8.515c2.188,-2.118 4.867,-3.66 7.798,-4.487c3.113,-0.828 6.324,-1.23 9.545,-1.195c2.009,0.002 4.017,0.112 6.014,0.331c2.479,0.294 4.936,0.749 7.356,1.361l0.68,9.839c-3.736,-1.393 -7.674,-2.17 -11.66,-2.299c-1.966,-0.012 -3.917,0.337 -5.756,1.03c-1.796,0.684 -3.395,1.802 -4.653,3.255c-1.301,1.486 -2.25,3.246 -2.777,5.149c-0.552,1.944 -0.83,3.956 -0.828,5.977c-0.054,2.516 0.396,5.017 1.324,7.356c0.895,2.094 2.505,3.802 4.543,4.818c2.273,1.169 4.801,1.757 7.356,1.71c1.649,-0.03 3.291,-0.202 4.91,-0.515c2.052,-0.37 4.07,-0.911 6.032,-1.618Z" style="fill:#fff;fill-rule:nonzero;"/></g><path d="M396.303,550.179c1.434,-20.598 2.599,-41.716 3.494,-63.356c0.895,-21.64 1.343,-38.192 1.343,-49.655l0,-9.6l15.007,0.184l13.756,-0.184c-2.452,31.485 -4.003,72.343 -4.653,122.575l-13.205,-0.184c-2.293,0.025 -7.54,0.098 -15.743,0.221Z" style="fill:#fff;fill-rule:nonzero;"/><path d="M519.871,425.453c8.716,-0.04 17.391,1.2 25.747,3.678c8.057,2.374 15.505,6.465 21.83,11.991c6.168,5.3 11.075,11.91 14.363,19.347c3.386,8.153 5.04,16.921 4.855,25.747c0.036,9.015 -1.514,17.967 -4.579,26.446c-2.951,8.26 -7.809,15.708 -14.179,21.738c-6.706,6.255 -14.761,10.887 -23.54,13.536c-18.398,5.744 -38.099,5.872 -56.57,0.368c-8.444,-2.478 -16.233,-6.8 -22.805,-12.653c-6.123,-5.378 -10.829,-12.181 -13.701,-19.807c-2.809,-7.757 -4.211,-15.953 -4.138,-24.202c-0.004,-9.355 1.782,-18.626 5.26,-27.31c3.194,-8.33 8.408,-15.738 15.172,-21.554c6.891,-5.784 14.852,-10.158 23.43,-12.874c9.321,-3.007 19.061,-4.51 28.855,-4.451Zm-1.434,19.126c-8.302,-0.199 -16.492,1.963 -23.614,6.234c-6.622,4.065 -11.891,10.006 -15.136,17.067c-3.408,7.324 -5.142,15.316 -5.076,23.393c-0.075,7.45 1.601,14.815 4.892,21.499c3.232,6.511 8.52,11.781 15.044,14.989c12.102,6.053 26.19,6.82 38.878,2.115c5.306,-1.98 10.083,-5.158 13.959,-9.287c4.008,-4.311 7.027,-9.446 8.846,-15.044c1.989,-5.926 2.989,-12.14 2.961,-18.391c0.021,-5.793 -0.872,-11.553 -2.648,-17.067c-1.648,-5.242 -4.458,-10.045 -8.221,-14.051c-3.72,-3.929 -8.322,-6.917 -13.425,-8.717c-5.286,-1.862 -10.856,-2.789 -16.46,-2.74Z" style="fill:#fff;fill-rule:nonzero;"/><g opacity="0.7"><path d="M408.478,620.046l0.993,-13.113l0.975,-19.531l0.625,-19.218l-8.828,0l-10.354,0.313c0.245,-4.316 0.38,-7.595 0.405,-9.839l51.807,0c-0.294,4.254 -0.441,7.534 -0.441,9.839c-5.419,-0.27 -10.611,-0.405 -15.577,-0.405l-3.457,0l-0.533,8.202l-1.287,31.559l0,12.101l-6.841,0l-7.485,0.092Z" style="fill:#fff;fill-rule:nonzero;"/><path d="M488.349,609.857c-0.392,1.766 -0.944,4.941 -1.655,9.526c-3.237,0.687 -5.959,1.152 -8.166,1.398c-2.223,0.243 -4.458,0.366 -6.694,0.368c-3.547,0.045 -7.086,-0.344 -10.538,-1.159c-3.025,-0.742 -5.822,-2.213 -8.147,-4.285c-2.335,-2.078 -4.112,-4.708 -5.168,-7.651c-1.11,-3.046 -1.67,-6.266 -1.655,-9.508c-0.035,-3.649 0.588,-7.275 1.839,-10.703c1.126,-3.204 2.976,-6.106 5.407,-8.478c2.241,-2.154 4.956,-3.754 7.926,-4.671c3.01,-0.915 6.141,-1.374 9.287,-1.361c2.944,-0.016 5.876,0.368 8.717,1.14c2.572,0.652 4.951,1.914 6.933,3.678c1.875,1.744 3.345,3.878 4.303,6.253c1.032,2.584 1.544,5.346 1.508,8.129c-0.003,1.458 -0.151,2.912 -0.441,4.34l-32.92,0l0,2.648c-0.022,1.889 0.328,3.764 1.03,5.517c0.661,1.637 1.694,3.098 3.016,4.267c1.363,1.191 2.97,2.069 4.708,2.575c1.745,0.542 3.561,0.821 5.389,0.828c2.254,-0.021 4.501,-0.248 6.713,-0.68c2.912,-0.541 5.786,-1.266 8.607,-2.17Zm-29.002,-18.133l21.021,0c0.02,-1.062 -0.023,-2.125 -0.129,-3.182c-0.119,-0.804 -0.323,-1.593 -0.607,-2.354c-0.296,-0.839 -0.731,-1.623 -1.287,-2.317c-0.514,-0.658 -1.136,-1.224 -1.839,-1.674c-0.77,-0.469 -1.607,-0.816 -2.483,-1.03c-0.993,-0.241 -2.012,-0.359 -3.034,-0.349c-1.25,-0.002 -2.492,0.196 -3.678,0.589c-1.172,0.378 -2.272,0.95 -3.255,1.692c-0.94,0.69 -1.755,1.536 -2.409,2.501c-0.562,0.829 -1.019,1.725 -1.361,2.667c-0.387,1.131 -0.7,2.286 -0.938,3.457Z" style="fill:#fff;fill-rule:nonzero;"/><path d="M499.163,620.046c0.441,-5.051 0.987,-14.143 1.637,-27.274c0.65,-13.131 1.042,-24.466 1.177,-34.005l13.131,0l-1.067,16.386l-1.563,36.543l-0.184,8.349l-13.131,-0Z" style="fill:#fff;fill-rule:nonzero;"/><path d="M564.267,609.857c-0.392,1.766 -0.944,4.941 -1.655,9.526c-3.237,0.687 -5.959,1.152 -8.166,1.398c-2.223,0.243 -4.458,0.366 -6.694,0.368c-3.547,0.045 -7.086,-0.344 -10.538,-1.159c-3.025,-0.742 -5.822,-2.213 -8.147,-4.285c-2.336,-2.077 -4.113,-4.708 -5.168,-7.651c-1.11,-3.046 -1.67,-6.266 -1.655,-9.508c-0.035,-3.649 0.588,-7.275 1.839,-10.703c1.166,-3.24 3.075,-6.163 5.572,-8.533c2.241,-2.154 4.956,-3.754 7.926,-4.671c3.01,-0.915 6.141,-1.374 9.287,-1.361c2.944,-0.016 5.876,0.368 8.717,1.14c2.572,0.652 4.951,1.914 6.933,3.678c1.876,1.743 3.345,3.878 4.303,6.253c1.032,2.584 1.544,5.346 1.508,8.129c-0.004,1.458 -0.152,2.911 -0.441,4.34l-32.92,0l0,2.648c-0.023,1.889 0.327,3.764 1.03,5.517c0.662,1.636 1.694,3.097 3.016,4.267c1.363,1.191 2.97,2.069 4.708,2.575c1.745,0.542 3.561,0.821 5.389,0.828c2.254,-0.021 4.501,-0.248 6.713,-0.68c2.855,-0.53 5.674,-1.237 8.441,-2.115Zm-29.002,-18.133l21.021,0c0.02,-1.062 -0.023,-2.125 -0.129,-3.182c-0.118,-0.804 -0.322,-1.593 -0.607,-2.354c-0.295,-0.839 -0.731,-1.623 -1.287,-2.317c-0.514,-0.658 -1.136,-1.224 -1.839,-1.674c-0.785,-0.481 -1.642,-0.835 -2.538,-1.048c-0.993,-0.241 -2.012,-0.359 -3.034,-0.349c-1.25,-0.002 -2.492,0.196 -3.678,0.589c-1.172,0.378 -2.272,0.95 -3.255,1.692c-0.94,0.69 -1.755,1.536 -2.409,2.501c-0.568,0.828 -1.031,1.724 -1.379,2.667c-0.362,1.139 -0.651,2.3 -0.864,3.476Z" style="fill:#fff;fill-rule:nonzero;"/></g><path d="M582.989,616.938c13.487,4.426 25.134,6.639 34.943,6.639c3.608,0.019 7.203,-0.451 10.685,-1.398c3.049,-0.779 5.917,-2.147 8.441,-4.028c2.364,-1.885 4.191,-4.359 5.297,-7.172c1.341,-3.354 2.19,-6.885 2.52,-10.483c0.417,-3.972 0.748,-9.992 0.993,-18.06c-1.885,2.626 -3.989,5.087 -6.29,7.356c-2.011,1.877 -4.262,3.479 -6.694,4.763c-2.909,1.522 -5.999,2.671 -9.195,3.421c-8.585,2.073 -17.584,1.671 -25.949,-1.159c-4.72,-1.639 -9.025,-4.287 -12.616,-7.761c-3.808,-3.724 -6.687,-8.292 -8.405,-13.333c-1.918,-5.377 -2.889,-11.046 -2.869,-16.754c-0.044,-8.108 1.558,-16.142 4.708,-23.614c2.956,-7.215 7.719,-13.549 13.83,-18.391c5.737,-4.617 12.378,-7.981 19.494,-9.876c7.53,-1.866 15.267,-2.769 23.025,-2.685c4.671,0 9.968,0.282 15.89,0.846c5.922,0.564 13.762,1.716 23.522,3.457l-2.06,28.451l-1.839,35.623l-0.552,32.276c-0.165,3.543 -0.614,7.067 -1.343,10.538c-0.653,3.225 -1.807,6.328 -3.421,9.195c-1.556,2.724 -3.557,5.167 -5.922,7.228c-2.422,2.113 -5.167,3.827 -8.129,5.076c-3.616,1.456 -7.377,2.522 -11.218,3.182c-4.727,0.858 -9.523,1.277 -14.326,1.251c-6.212,-0.045 -12.418,-0.408 -18.593,-1.085c-7.652,-0.845 -15.239,-2.197 -22.713,-4.046l-1.214,-19.457Zm65.563,-92.322c-4.751,-1.028 -9.594,-1.57 -14.455,-1.618c-6.695,-0.253 -13.345,1.217 -19.31,4.267c-5.099,2.854 -9.207,7.199 -11.77,12.451c-2.738,5.376 -4.157,11.328 -4.138,17.361c-0.034,4.31 0.824,8.58 2.52,12.543c1.55,3.727 4.32,6.82 7.853,8.772c3.614,1.989 7.682,3.009 11.807,2.961c2.918,0.024 5.819,-0.462 8.57,-1.434c2.681,-0.972 5.139,-2.473 7.228,-4.414c2.279,-2.134 4.203,-4.617 5.701,-7.356c1.7,-3.097 2.881,-6.452 3.494,-9.931c0.797,-4.581 1.325,-9.205 1.582,-13.848c0.405,-5.542 0.73,-12.12 0.975,-19.733l-0.055,-0.018Z" style="fill:#fff;fill-rule:nonzero;"/><path d="M692.414,597.995l2.611,-42.593l0.717,-24.791c0.123,-5.088 0.184,-10.207 0.184,-15.356c0,-0.895 -0.061,-3.739 -0.184,-8.533c5.566,0.123 9.667,0.184 12.303,0.184c3.053,0 7.093,-0.061 12.12,-0.184l-0.441,12.653c1.733,-2.572 3.683,-4.99 5.83,-7.228c3.349,-3.301 7.542,-5.618 12.12,-6.694c4.899,-1.199 10.016,-1.199 14.915,0c0,5.566 0.27,12.628 0.809,21.186c-3.129,-0.898 -6.363,-1.381 -9.618,-1.434c-3.136,-0.06 -6.255,0.471 -9.195,1.563c-2.701,1.072 -5.15,2.694 -7.191,4.763c-2.225,2.268 -4.009,4.932 -5.26,7.853c-1.301,3.125 -2.15,6.419 -2.52,9.784c-0.466,3.114 -0.858,8.441 -1.177,15.982c-0.319,7.54 -0.478,14.964 -0.478,22.271c0,2.82 0.092,6.351 0.276,10.593c-4.561,-0.123 -8.73,-0.184 -12.506,-0.184c-3.776,0 -8.215,0.055 -13.315,0.166Z" style="fill:#fff;fill-rule:nonzero;"/><path d="M770.814,526.694c0.834,-4.316 1.355,-7.338 1.563,-9.067c0.208,-1.729 0.582,-4.365 1.122,-7.908c7.109,-1.725 14.303,-3.076 21.554,-4.046c5.984,-0.759 12.009,-1.146 18.041,-1.159c6.12,-0.056 12.22,0.717 18.133,2.299c4.893,1.203 9.353,3.752 12.874,7.356c3.114,3.347 4.671,8.166 4.671,14.455c0,3.408 -0.478,12.101 -1.434,26.078c-0.956,13.977 -1.52,28.42 -1.692,43.329c-4.549,-0.123 -8.742,-0.184 -12.579,-0.184c-3.838,0 -8.129,0.061 -12.874,0.184c0.785,-7.246 1.398,-15.626 1.839,-25.14l1.177,-22.363c-1.677,1.141 -3.414,2.191 -5.205,3.145c-1.309,0.643 -2.661,1.196 -4.046,1.655c-1.496,0.503 -4.132,1.281 -7.908,2.336c-3.776,1.054 -6.805,1.968 -9.085,2.74c-2.123,0.711 -4.184,1.597 -6.161,2.648c-1.692,0.889 -3.252,2.01 -4.634,3.329c-1.163,1.091 -2.094,2.404 -2.74,3.862c-0.574,1.381 -0.862,2.863 -0.846,4.359c-0.05,2.361 0.731,4.666 2.207,6.51c1.416,1.796 3.338,3.129 5.517,3.825c2.533,0.767 5.17,1.133 7.816,1.085c2.031,-0.005 4.059,-0.153 6.069,-0.441c2.916,-0.501 5.783,-1.251 8.57,-2.244c-1.723,5.01 -3.19,10.105 -4.395,15.264c-4.254,0.723 -7.638,1.171 -10.152,1.343c-2.513,0.172 -4.849,0.264 -7.007,0.276c-6.338,0.209 -12.655,-0.828 -18.593,-3.053c-4.623,-1.835 -8.431,-5.278 -10.722,-9.692c-2.225,-4.115 -3.412,-8.711 -3.457,-13.389c0.023,-5.316 1.896,-10.461 5.297,-14.547c1.968,-2.309 4.231,-4.35 6.731,-6.069c3.715,-2.412 7.735,-4.317 11.954,-5.664c6.775,-2.247 13.678,-4.089 20.671,-5.517c2.28,-0.478 4.647,-1.091 7.099,-1.839c2.008,-0.533 3.974,-1.209 5.885,-2.023c1.416,-0.62 2.711,-1.485 3.825,-2.556c0.991,-0.931 1.796,-2.042 2.372,-3.274c0.503,-1.096 0.766,-2.288 0.772,-3.494c0.048,-2.2 -0.779,-4.331 -2.299,-5.922c-1.612,-1.664 -3.667,-2.832 -5.922,-3.366c-2.629,-0.651 -5.329,-0.966 -8.037,-0.938c-10.802,0 -22.792,2.605 -35.972,7.816Z" style="fill:#fff;fill-rule:nonzero;"/><path d="M868.34,597.995c0.834,-10.176 1.716,-25.379 2.648,-45.609c0.932,-20.23 1.398,-35.464 1.398,-45.701c5.088,0.123 9.22,0.184 12.395,0.184c3.678,0 7.632,-0.061 11.862,-0.184l-0.699,14.455c1.595,-2.405 3.346,-4.702 5.241,-6.878c1.79,-1.93 3.861,-3.579 6.143,-4.892c2.765,-1.598 5.743,-2.793 8.846,-3.549c3.419,-0.874 6.935,-1.313 10.464,-1.306c2.625,-0.004 5.243,0.255 7.816,0.772c2.359,0.461 4.66,1.182 6.86,2.152c1.897,0.825 3.678,1.894 5.297,3.182c1.406,1.153 2.644,2.496 3.678,3.991c1.323,2.054 2.438,4.235 3.329,6.51c1.134,-1.816 2.361,-3.572 3.678,-5.26c2.88,-3.489 6.523,-6.271 10.648,-8.129c2.46,-1.073 5.033,-1.869 7.669,-2.372c2.914,-0.573 5.877,-0.857 8.846,-0.846c5.017,-0.031 10,0.834 14.713,2.556c4.362,1.518 8.156,4.336 10.869,8.074c2.74,4.03 4.125,8.831 3.954,13.701c0,2.869 -0.208,7.087 -0.625,12.653c-0.417,5.566 -0.92,14.651 -1.508,27.255c-0.589,12.604 -0.913,22.345 -0.975,29.223c-4.377,-0.123 -8.245,-0.184 -11.605,-0.184c-3.96,0 -8.607,0.061 -13.94,0.184c0.539,-7.724 1.048,-15.804 1.526,-24.239l1.085,-20.561c0.307,-5.211 0.46,-9.612 0.46,-13.205c0.205,-3.359 -0.493,-6.713 -2.023,-9.71c-1.186,-2.048 -2.97,-3.684 -5.113,-4.69c-2.196,-0.96 -4.573,-1.437 -6.97,-1.398c-2.535,-0.044 -5.048,0.478 -7.356,1.526c-2.38,1.179 -4.466,2.876 -6.106,4.966c-1.933,2.369 -3.41,5.075 -4.359,7.982c-1.22,4.157 -1.967,8.439 -2.225,12.763c-0.478,5.48 -0.864,12.677 -1.159,21.591l-0.625,24.956c-4.978,-0.123 -9.116,-0.184 -12.414,-0.184c-3.298,0 -7.706,0.061 -13.223,0.184c0.417,-4.61 1.03,-14.038 1.839,-28.285c0.809,-14.247 1.195,-23.853 1.159,-28.818c0.038,-2.248 -0.171,-4.493 -0.625,-6.694c-0.457,-1.902 -1.33,-3.68 -2.556,-5.205c-1.181,-1.581 -2.735,-2.845 -4.524,-3.678c-1.9,-0.808 -3.95,-1.203 -6.014,-1.159c-4.064,-0.042 -8,1.434 -11.034,4.138c-3.3,2.958 -5.708,6.781 -6.952,11.034c-1.471,4.61 -2.532,13.572 -3.182,26.887c-0.65,13.315 -0.975,23.896 -0.975,31.743c-5.493,-0.123 -9.643,-0.184 -12.451,-0.184c-3.188,0.049 -7.583,0.135 -13.186,0.257Z" style="fill:#fff;fill-rule:nonzero;"/></g></g></svg>